<svg xmlns="http://www.w3.org/2000/svg" viewBox="0 0 96 96" width="96" height="96" role="img"><defs><linearGradient id="g" x1="0" y1="0" x2="0" y2="1"><stop offset="0" stop-color="#b1b0ab"/><stop offset="1" stop-color="#979691"/></linearGradient><linearGradient id="m" x1="0" y1="0" x2="1" y2="1"><stop offset="0" stop-color="#c8c7c1"/><stop offset=".5" stop-color="#a4a39e"/><stop offset="1" stop-color="#797975"/></linearGradient></defs><rect width="96" height="96" fill="#6b6a67"/><circle cx="46.2" cy="48.1" r="5.4" fill="#a4a39e" opacity="0.94"/><circle cx="79.3" cy="64.0" r="5.9" fill="#d4d1c8" opacity="0.98"/><circle cx="5.7" cy="60.6" r="7.6" fill="#d4d1c8" opacity="0.92"/><circle cx="57.7" cy="64.0" r="4.7" fill="#d4d1c8" opacity="0.90"/><circle cx="51.8" cy="3.9" r="4.4" fill="#d4d1c8" opacity="0.88"/><circle cx="10.2" cy="33.1" r="11.0" fill="#a4a39e" opacity="0.87"/><circle cx="1.1" cy="9.7" r="3.8" fill="#d4d1c8" opacity="0.87"/><circle cx="37.5" cy="63.9" r="4.2" fill="#a4a39e" opacity="0.95"/><circle cx="1.0" cy="32.5" r="4.0" fill="#d4d1c8" opacity="0.99"/><circle cx="72.8" cy="15.2" r="8.9" fill="#a4a39e" opacity="0.91"/><circle cx="47.1" cy="1.9" r="10.3" fill="#d4d1c8" opacity="0.79"/><circle cx="53.9" cy="33.2" r="7.0" fill="#a4a39e" opacity="0.96"/><circle cx="60.8" cy="29.9" r="3.0" fill="#a4a39e" opacity="0.92"/><circle cx="71.1" cy="70.6" r="4.1" fill="#a4a39e" opacity="0.82"/><circle cx="49.3" cy="22.7" r="4.6" fill="#d4d1c8" opacity="0.90"/><circle cx="68.0" cy="13.6" r="9.1" fill="#a4a39e" opacity="0.83"/><circle cx="4.4" cy="38.7" r="9.1" fill="#d4d1c8" opacity="0.78"/><circle cx="17.9" cy="55.8" r="5.0" fill="#d4d1c8" opacity="0.97"/><circle cx="47.4" cy="70.5" r="9.9" fill="#a4a39e" opacity="0.93"/><circle cx="85.7" cy="55.5" r="4.4" fill="#a4a39e" opacity="1.00"/><circle cx="78.7" cy="32.4" r="9.5" fill="#a4a39e" opacity="0.85"/><circle cx="27.8" cy="85.7" r="3.8" fill="#d4d1c8" opacity="0.78"/><circle cx="84.6" cy="71.5" r="5.3" fill="#d4d1c8" opacity="0.78"/><circle cx="85.3" cy="52.2" r="3.2" fill="#a4a39e" opacity="0.88"/><circle cx="87.3" cy="78.1" r="10.0" fill="#a4a39e" opacity="0.95"/><circle cx="28.1" cy="1.3" r="8.8" fill="#a4a39e" opacity="0.96"/><circle cx="40.2" cy="91.0" r="6.2" fill="#d4d1c8" opacity="0.79"/><circle cx="36.1" cy="67.1" r="10.5" fill="#d4d1c8" opacity="0.78"/><circle cx="93.7" cy="72.9" r="9.7" fill="#d4d1c8" opacity="0.86"/><circle cx="80.6" cy="43.9" r="6.7" fill="#a4a39e" opacity="0.90"/><circle cx="32.7" cy="79.6" r="4.3" fill="#d4d1c8" opacity="0.91"/><circle cx="29.2" cy="86.4" r="7.8" fill="#a4a39e" opacity="0.91"/><circle cx="80.5" cy="83.7" r="10.4" fill="#a4a39e" opacity="0.94"/><circle cx="31.4" cy="31.7" r="3.5" fill="#a4a39e" opacity="0.80"/><circle cx="5.0" cy="13.7" r="5.5" fill="#a4a39e" opacity="0.97"/><circle cx="55.7" cy="29.6" r="4.6" fill="#d4d1c8" opacity="0.98"/><circle cx="28.1" cy="21.4" r="9.1" fill="#a4a39e" opacity="0.79"/><circle cx="91.8" cy="21.2" r="6.9" fill="#a4a39e" opacity="0.80"/><circle cx="33.7" cy="24.8" r="3.8" fill="#a4a39e" opacity="0.99"/><circle cx="72.8" cy="43.9" r="6.3" fill="#d4d1c8" opacity="0.90"/><circle cx="8.1" cy="24.3" r="8.0" fill="#d4d1c8" opacity="0.81"/><circle cx="57.8" cy="86.2" r="10.3" fill="#d4d1c8" opacity="0.94"/><circle cx="3.3" cy="28.0" r="10.2" fill="#a4a39e" opacity="0.85"/><circle cx="63.4" cy="83.7" r="3.7" fill="#a4a39e" opacity="0.83"/><circle cx="60.8" cy="63.4" r="4.2" fill="#a4a39e" opacity="0.93"/><circle cx="79.9" cy="53.2" r="7.0" fill="#d4d1c8" opacity="0.85"/><circle cx="92.8" cy="70.7" r="3.1" fill="#d4d1c8" opacity="0.95"/><circle cx="52.9" cy="83.0" r="6.8" fill="#d4d1c8" opacity="0.97"/><circle cx="51.6" cy="22.2" r="3.9" fill="#d4d1c8" opacity="0.88"/><circle cx="55.1" cy="22.8" r="6.9" fill="#d4d1c8" opacity="0.88"/><circle cx="80.3" cy="43.1" r="6.9" fill="#d4d1c8" opacity="0.76"/><circle cx="82.4" cy="82.3" r="5.8" fill="#a4a39e" opacity="0.99"/><circle cx="18.5" cy="33.8" r="10.0" fill="#d4d1c8" opacity="0.91"/><circle cx="95.5" cy="56.6" r="10.2" fill="#d4d1c8" opacity="0.80"/><circle cx="93.3" cy="52.6" r="9.8" fill="#d4d1c8" opacity="0.77"/><circle cx="8.7" cy="89.3" r="6.4" fill="#d4d1c8" opacity="0.82"/><circle cx="22.3" cy="77.2" r="10.2" fill="#a4a39e" opacity="0.93"/><circle cx="49.0" cy="29.8" r="5.0" fill="#a4a39e" opacity="0.91"/><circle cx="8.6" cy="7.1" r="8.6" fill="#a4a39e" opacity="0.81"/><circle cx="22.9" cy="81.0" r="7.7" fill="#d4d1c8" opacity="0.95"/><circle cx="73.4" cy="64.8" r="4.3" fill="#a4a39e" opacity="0.97"/><circle cx="8.2" cy="69.8" r="7.5" fill="#a4a39e" opacity="0.87"/><circle cx="52.5" cy="17.6" r="8.8" fill="#d4d1c8" opacity="0.96"/><circle cx="30.1" cy="90.7" r="10.2" fill="#d4d1c8" opacity="0.78"/></svg>