<svg xmlns="http://www.w3.org/2000/svg" viewBox="0 0 96 96" width="96" height="96" role="img"><defs><linearGradient id="g" x1="0" y1="0" x2="0" y2="1"><stop offset="0" stop-color="#97928c"/><stop offset="1" stop-color="#817c78"/></linearGradient><linearGradient id="m" x1="0" y1="0" x2="1" y2="1"><stop offset="0" stop-color="#aba59f"/><stop offset=".5" stop-color="#8c8782"/><stop offset="1" stop-color="#686460"/></linearGradient></defs><rect width="96" height="96" fill="#5b5855"/><circle cx="35.4" cy="55.2" r="10.4" fill="#8c8782" opacity="0.94"/><circle cx="31.8" cy="52.5" r="4.7" fill="#d4d1c8" opacity="0.79"/><circle cx="76.5" cy="12.3" r="3.7" fill="#8c8782" opacity="0.80"/><circle cx="76.3" cy="89.6" r="6.8" fill="#d4d1c8" opacity="0.79"/><circle cx="30.7" cy="75.4" r="10.7" fill="#8c8782" opacity="0.96"/><circle cx="60.6" cy="70.2" r="3.7" fill="#d4d1c8" opacity="0.91"/><circle cx="9.0" cy="64.7" r="3.8" fill="#8c8782" opacity="0.88"/><circle cx="92.2" cy="51.9" r="7.8" fill="#d4d1c8" opacity="0.83"/><circle cx="43.2" cy="13.2" r="7.7" fill="#8c8782" opacity="0.94"/><circle cx="74.3" cy="73.2" r="3.4" fill="#d4d1c8" opacity="0.84"/><circle cx="63.6" cy="47.0" r="7.5" fill="#d4d1c8" opacity="0.94"/><circle cx="92.0" cy="32.8" r="4.3" fill="#8c8782" opacity="0.96"/><circle cx="37.2" cy="35.9" r="9.0" fill="#8c8782" opacity="0.82"/><circle cx="12.7" cy="48.5" r="8.1" fill="#d4d1c8" opacity="0.85"/><circle cx="64.4" cy="82.6" r="6.7" fill="#8c8782" opacity="0.97"/><circle cx="24.2" cy="11.9" r="7.8" fill="#8c8782" opacity="0.95"/><circle cx="87.5" cy="63.1" r="5.4" fill="#d4d1c8" opacity="0.85"/><circle cx="66.3" cy="18.7" r="3.7" fill="#8c8782" opacity="0.89"/><circle cx="45.6" cy="5.4" r="6.3" fill="#8c8782" opacity="0.79"/><circle cx="38.5" cy="49.7" r="6.1" fill="#8c8782" opacity="0.78"/><circle cx="17.2" cy="37.4" r="8.0" fill="#8c8782" opacity="0.75"/><circle cx="2.1" cy="80.0" r="6.9" fill="#8c8782" opacity="0.81"/><circle cx="77.2" cy="17.2" r="9.8" fill="#d4d1c8" opacity="0.93"/><circle cx="61.9" cy="57.4" r="5.6" fill="#d4d1c8" opacity="0.95"/><circle cx="52.8" cy="18.7" r="6.2" fill="#8c8782" opacity="0.82"/><circle cx="5.4" cy="11.0" r="9.0" fill="#8c8782" opacity="0.88"/><circle cx="68.6" cy="45.0" r="7.4" fill="#8c8782" opacity="0.83"/><circle cx="71.5" cy="41.6" r="3.4" fill="#d4d1c8" opacity="0.92"/><circle cx="75.7" cy="18.7" r="10.6" fill="#d4d1c8" opacity="0.85"/><circle cx="13.1" cy="13.7" r="3.6" fill="#8c8782" opacity="0.88"/><circle cx="35.0" cy="5.1" r="9.9" fill="#8c8782" opacity="0.91"/><circle cx="15.2" cy="43.7" r="5.1" fill="#8c8782" opacity="0.87"/><circle cx="95.7" cy="16.4" r="10.3" fill="#d4d1c8" opacity="0.80"/><circle cx="75.0" cy="31.2" r="9.3" fill="#d4d1c8" opacity="0.88"/><circle cx="16.9" cy="89.9" r="8.8" fill="#8c8782" opacity="0.96"/><circle cx="20.3" cy="80.3" r="8.5" fill="#8c8782" opacity="0.77"/><circle cx="79.0" cy="85.6" r="4.4" fill="#d4d1c8" opacity="0.81"/><circle cx="86.3" cy="71.4" r="5.6" fill="#d4d1c8" opacity="0.98"/><circle cx="14.0" cy="48.3" r="8.2" fill="#d4d1c8" opacity="0.93"/><circle cx="40.1" cy="71.7" r="5.8" fill="#d4d1c8" opacity="0.79"/><circle cx="77.8" cy="10.7" r="7.0" fill="#8c8782" opacity="0.95"/><circle cx="58.3" cy="29.0" r="9.0" fill="#8c8782" opacity="0.96"/><circle cx="24.9" cy="0.3" r="7.0" fill="#8c8782" opacity="0.81"/><circle cx="59.0" cy="5.4" r="9.5" fill="#d4d1c8" opacity="0.92"/><circle cx="92.4" cy="21.9" r="4.5" fill="#8c8782" opacity="0.88"/><circle cx="26.3" cy="21.0" r="7.6" fill="#8c8782" opacity="0.82"/><circle cx="62.2" cy="94.0" r="3.4" fill="#8c8782" opacity="0.80"/><circle cx="6.0" cy="0.7" r="9.0" fill="#8c8782" opacity="0.84"/><circle cx="13.4" cy="17.4" r="8.2" fill="#d4d1c8" opacity="0.86"/><circle cx="17.4" cy="61.3" r="10.9" fill="#8c8782" opacity="0.83"/><circle cx="30.1" cy="78.7" r="6.4" fill="#8c8782" opacity="0.78"/><circle cx="89.4" cy="21.7" r="4.5" fill="#d4d1c8" opacity="0.78"/><circle cx="5.7" cy="3.8" r="4.8" fill="#d4d1c8" opacity="0.97"/><circle cx="78.0" cy="67.3" r="4.4" fill="#d4d1c8" opacity="0.94"/><circle cx="82.3" cy="86.7" r="6.2" fill="#8c8782" opacity="0.86"/><circle cx="44.8" cy="91.4" r="10.8" fill="#8c8782" opacity="0.91"/><circle cx="62.4" cy="35.9" r="8.2" fill="#8c8782" opacity="0.94"/><circle cx="10.7" cy="84.2" r="6.3" fill="#8c8782" opacity="0.78"/><circle cx="65.1" cy="39.7" r="6.2" fill="#8c8782" opacity="0.77"/><circle cx="30.5" cy="87.0" r="7.5" fill="#8c8782" opacity="0.98"/><circle cx="64.5" cy="13.3" r="5.7" fill="#8c8782" opacity="0.94"/><circle cx="91.2" cy="39.2" r="8.4" fill="#d4d1c8" opacity="0.91"/><circle cx="31.9" cy="81.2" r="3.2" fill="#8c8782" opacity="1.00"/><circle cx="17.2" cy="71.6" r="6.0" fill="#8c8782" opacity="0.86"/></svg>