<svg xmlns="http://www.w3.org/2000/svg" viewBox="0 0 96 96" width="96" height="96" role="img"><defs><linearGradient id="g" x1="0" y1="0" x2="0" y2="1"><stop offset="0" stop-color="#7d7a72"/><stop offset="1" stop-color="#6b6862"/></linearGradient><linearGradient id="m" x1="0" y1="0" x2="1" y2="1"><stop offset="0" stop-color="#8e8a81"/><stop offset=".5" stop-color="#74716a"/><stop offset="1" stop-color="#56544e"/></linearGradient></defs><rect width="96" height="96" fill="#4b4945"/><circle cx="79.3" cy="37.5" r="4.3" fill="#74716a" opacity="0.76"/><circle cx="62.4" cy="17.1" r="8.2" fill="#c3c0ba" opacity="0.98"/><circle cx="2.2" cy="17.5" r="6.8" fill="#c3c0ba" opacity="0.78"/><circle cx="55.2" cy="0.4" r="5.0" fill="#74716a" opacity="0.75"/><circle cx="55.9" cy="51.2" r="7.5" fill="#c3c0ba" opacity="0.81"/><circle cx="43.0" cy="0.8" r="7.6" fill="#c3c0ba" opacity="0.76"/><circle cx="52.4" cy="52.4" r="4.3" fill="#74716a" opacity="0.98"/><circle cx="66.1" cy="79.2" r="4.9" fill="#74716a" opacity="0.86"/><circle cx="62.9" cy="54.9" r="3.8" fill="#c3c0ba" opacity="0.83"/><circle cx="68.1" cy="41.9" r="5.8" fill="#c3c0ba" opacity="0.94"/><circle cx="22.4" cy="8.0" r="8.0" fill="#74716a" opacity="0.97"/><circle cx="48.5" cy="7.9" r="7.9" fill="#c3c0ba" opacity="0.93"/><circle cx="84.3" cy="47.1" r="4.7" fill="#c3c0ba" opacity="0.83"/><circle cx="20.7" cy="43.3" r="6.9" fill="#c3c0ba" opacity="0.85"/><circle cx="77.9" cy="85.3" r="8.7" fill="#74716a" opacity="0.79"/><circle cx="37.7" cy="40.8" r="6.3" fill="#74716a" opacity="0.98"/><circle cx="29.6" cy="65.6" r="6.8" fill="#c3c0ba" opacity="0.98"/><circle cx="94.5" cy="21.2" r="4.1" fill="#c3c0ba" opacity="0.95"/><circle cx="55.2" cy="63.1" r="10.7" fill="#c3c0ba" opacity="0.95"/><circle cx="42.4" cy="63.7" r="5.9" fill="#74716a" opacity="0.89"/><circle cx="51.4" cy="53.9" r="7.7" fill="#74716a" opacity="0.91"/><circle cx="1.1" cy="45.2" r="10.3" fill="#c3c0ba" opacity="0.99"/><circle cx="50.7" cy="20.3" r="7.6" fill="#74716a" opacity="0.89"/><circle cx="47.6" cy="50.4" r="5.0" fill="#74716a" opacity="0.76"/><circle cx="60.9" cy="26.5" r="5.3" fill="#c3c0ba" opacity="0.95"/><circle cx="30.5" cy="65.6" r="3.6" fill="#74716a" opacity="0.98"/><circle cx="21.0" cy="36.5" r="7.6" fill="#74716a" opacity="0.85"/><circle cx="56.0" cy="77.2" r="10.6" fill="#74716a" opacity="0.99"/><circle cx="21.9" cy="56.9" r="4.2" fill="#74716a" opacity="0.92"/><circle cx="30.8" cy="69.4" r="9.4" fill="#c3c0ba" opacity="0.92"/><circle cx="15.1" cy="91.6" r="10.2" fill="#c3c0ba" opacity="0.98"/><circle cx="93.8" cy="17.9" r="6.4" fill="#c3c0ba" opacity="0.98"/><circle cx="28.4" cy="61.4" r="9.2" fill="#c3c0ba" opacity="0.75"/><circle cx="4.1" cy="58.2" r="6.1" fill="#74716a" opacity="0.79"/><circle cx="0.2" cy="0.5" r="4.3" fill="#74716a" opacity="0.79"/><circle cx="50.8" cy="19.2" r="10.5" fill="#74716a" opacity="0.99"/><circle cx="11.5" cy="21.8" r="4.7" fill="#c3c0ba" opacity="0.82"/><circle cx="78.7" cy="64.2" r="8.4" fill="#c3c0ba" opacity="0.81"/><circle cx="82.7" cy="26.0" r="4.5" fill="#74716a" opacity="0.82"/><circle cx="53.0" cy="62.5" r="4.8" fill="#74716a" opacity="0.98"/><circle cx="46.5" cy="4.6" r="9.9" fill="#74716a" opacity="0.77"/><circle cx="51.6" cy="21.8" r="10.1" fill="#74716a" opacity="0.82"/><circle cx="14.8" cy="45.5" r="7.9" fill="#74716a" opacity="0.89"/><circle cx="68.5" cy="9.6" r="7.6" fill="#c3c0ba" opacity="0.89"/><circle cx="63.1" cy="90.6" r="5.4" fill="#c3c0ba" opacity="0.87"/><circle cx="77.0" cy="54.8" r="3.4" fill="#c3c0ba" opacity="0.87"/><circle cx="60.9" cy="1.8" r="10.4" fill="#74716a" opacity="0.79"/><circle cx="44.8" cy="89.9" r="8.4" fill="#c3c0ba" opacity="0.84"/><circle cx="52.0" cy="33.4" r="5.5" fill="#74716a" opacity="0.97"/><circle cx="31.1" cy="81.8" r="5.6" fill="#74716a" opacity="0.90"/><circle cx="20.9" cy="81.3" r="8.9" fill="#c3c0ba" opacity="0.90"/><circle cx="14.8" cy="7.0" r="6.1" fill="#c3c0ba" opacity="0.92"/><circle cx="90.7" cy="35.4" r="4.1" fill="#74716a" opacity="0.96"/><circle cx="36.7" cy="60.3" r="7.2" fill="#74716a" opacity="0.94"/><circle cx="61.7" cy="48.8" r="8.0" fill="#74716a" opacity="0.75"/><circle cx="76.4" cy="62.3" r="6.4" fill="#c3c0ba" opacity="0.85"/><circle cx="81.1" cy="57.9" r="4.6" fill="#74716a" opacity="0.99"/><circle cx="63.5" cy="16.0" r="10.2" fill="#c3c0ba" opacity="0.93"/><circle cx="3.7" cy="18.5" r="8.7" fill="#c3c0ba" opacity="1.00"/><circle cx="5.2" cy="21.4" r="6.0" fill="#74716a" opacity="0.83"/><circle cx="45.3" cy="55.0" r="3.9" fill="#c3c0ba" opacity="0.78"/><circle cx="1.6" cy="23.6" r="7.3" fill="#c3c0ba" opacity="0.75"/><circle cx="31.9" cy="95.5" r="3.6" fill="#74716a" opacity="0.94"/><circle cx="57.1" cy="14.1" r="7.7" fill="#74716a" opacity="0.96"/></svg>