<svg xmlns="http://www.w3.org/2000/svg" viewBox="0 0 96 96" width="96" height="96" role="img"><defs><linearGradient id="g" x1="0" y1="0" x2="0" y2="1"><stop offset="0" stop-color="#26292b"/><stop offset="1" stop-color="#202325"/></linearGradient><linearGradient id="m" x1="0" y1="0" x2="1" y2="1"><stop offset="0" stop-color="#2b2e31"/><stop offset=".5" stop-color="#232628"/><stop offset="1" stop-color="#1a1c1e"/></linearGradient></defs><rect width="96" height="96" fill="#141617"/><rect x="2.5" y="2.5" width="19" height="19" rx="2" fill="none" stroke="#232628" stroke-width="3.5"/><rect x="2.5" y="26.5" width="19" height="19" rx="2" fill="none" stroke="#232628" stroke-width="3.5"/><rect x="2.5" y="50.5" width="19" height="19" rx="2" fill="none" stroke="#232628" stroke-width="3.5"/><rect x="2.5" y="74.5" width="19" height="19" rx="2" fill="none" stroke="#232628" stroke-width="3.5"/><rect x="26.5" y="2.5" width="19" height="19" rx="2" fill="none" stroke="#232628" stroke-width="3.5"/><rect x="26.5" y="26.5" width="19" height="19" rx="2" fill="none" stroke="#232628" stroke-width="3.5"/><rect x="26.5" y="50.5" width="19" height="19" rx="2" fill="none" stroke="#232628" stroke-width="3.5"/><rect x="26.5" y="74.5" width="19" height="19" rx="2" fill="none" stroke="#232628" stroke-width="3.5"/><rect x="50.5" y="2.5" width="19" height="19" rx="2" fill="none" stroke="#232628" stroke-width="3.5"/><rect x="50.5" y="26.5" width="19" height="19" rx="2" fill="none" stroke="#232628" stroke-width="3.5"/><rect x="50.5" y="50.5" width="19" height="19" rx="2" fill="none" stroke="#232628" stroke-width="3.5"/><rect x="50.5" y="74.5" width="19" height="19" rx="2" fill="none" stroke="#232628" stroke-width="3.5"/><rect x="74.5" y="2.5" width="19" height="19" rx="2" fill="none" stroke="#232628" stroke-width="3.5"/><rect x="74.5" y="26.5" width="19" height="19" rx="2" fill="none" stroke="#232628" stroke-width="3.5"/><rect x="74.5" y="50.5" width="19" height="19" rx="2" fill="none" stroke="#232628" stroke-width="3.5"/><rect x="74.5" y="74.5" width="19" height="19" rx="2" fill="none" stroke="#232628" stroke-width="3.5"/></svg>