<svg xmlns="http://www.w3.org/2000/svg" viewBox="0 0 96 96" width="96" height="96" role="img"><defs><linearGradient id="g" x1="0" y1="0" x2="0" y2="1"><stop offset="0" stop-color="#322d28"/><stop offset="1" stop-color="#2a2722"/></linearGradient><linearGradient id="m" x1="0" y1="0" x2="1" y2="1"><stop offset="0" stop-color="#38332d"/><stop offset=".5" stop-color="#2e2a25"/><stop offset="1" stop-color="#221f1b"/></linearGradient></defs><rect width="96" height="96" fill="#2e2a25"/><rect x="76.1" y="91.7" width="7.1" height="4.5" rx="2.3" fill="#35312b" opacity=".62" transform="rotate(135 76.1 91.7)"/><rect x="14.2" y="23.2" width="17.0" height="3.1" rx="1.5" fill="#35312b" opacity=".62" transform="rotate(150 14.2 23.2)"/><rect x="42.1" y="78.0" width="15.5" height="3.2" rx="1.6" fill="#35312b" opacity=".62" transform="rotate(48 42.1 78.0)"/><rect x="18.8" y="67.4" width="18.9" height="4.3" rx="2.1" fill="#45403a" opacity=".62" transform="rotate(35 18.8 67.4)"/><rect x="66.7" y="80.6" width="7.4" height="3.7" rx="1.9" fill="#45403a" opacity=".62" transform="rotate(75 66.7 80.6)"/><rect x="49.4" y="12.2" width="13.6" height="3.1" rx="1.6" fill="#45403a" opacity=".62" transform="rotate(55 49.4 12.2)"/><rect x="45.4" y="6.5" width="17.2" height="4.8" rx="2.4" fill="#35312b" opacity=".62" transform="rotate(53 45.4 6.5)"/><rect x="36.1" y="73.6" width="11.6" height="4.0" rx="2.0" fill="#35312b" opacity=".62" transform="rotate(21 36.1 73.6)"/><rect x="0.0" y="89.4" width="6.5" height="3.7" rx="1.9" fill="#35312b" opacity=".62" transform="rotate(119 0.0 89.4)"/><rect x="90.1" y="12.8" width="20.6" height="4.2" rx="2.1" fill="#45403a" opacity=".62" transform="rotate(55 90.1 12.8)"/><rect x="79.5" y="78.0" width="11.1" height="4.4" rx="2.2" fill="#35312b" opacity=".62" transform="rotate(158 79.5 78.0)"/><rect x="10.5" y="34.7" width="10.4" height="4.4" rx="2.2" fill="#45403a" opacity=".62" transform="rotate(88 10.5 34.7)"/><rect x="86.2" y="53.9" width="9.7" height="1.9" rx="0.9" fill="#35312b" opacity=".62" transform="rotate(73 86.2 53.9)"/><rect x="60.8" y="14.4" width="8.6" height="2.4" rx="1.2" fill="#45403a" opacity=".62" transform="rotate(153 60.8 14.4)"/><rect x="53.1" y="40.4" width="20.2" height="4.1" rx="2.0" fill="#35312b" opacity=".62" transform="rotate(83 53.1 40.4)"/><rect x="30.1" y="12.8" width="16.9" height="2.8" rx="1.4" fill="#45403a" opacity=".62" transform="rotate(99 30.1 12.8)"/><rect x="0.3" y="79.5" width="6.5" height="4.6" rx="2.3" fill="#35312b" opacity=".62" transform="rotate(52 0.3 79.5)"/><rect x="59.4" y="8.6" width="12.6" height="2.5" rx="1.3" fill="#35312b" opacity=".62" transform="rotate(148 59.4 8.6)"/><rect x="1.6" y="30.5" width="14.5" height="4.7" rx="2.4" fill="#35312b" opacity=".62" transform="rotate(10 1.6 30.5)"/><rect x="23.5" y="33.2" width="6.4" height="2.5" rx="1.2" fill="#45403a" opacity=".62" transform="rotate(54 23.5 33.2)"/><rect x="10.6" y="40.2" width="9.7" height="2.5" rx="1.3" fill="#35312b" opacity=".62" transform="rotate(32 10.6 40.2)"/><rect x="50.7" y="73.1" width="20.7" height="4.5" rx="2.2" fill="#35312b" opacity=".62" transform="rotate(143 50.7 73.1)"/><rect x="29.9" y="12.0" width="5.5" height="4.6" rx="2.3" fill="#35312b" opacity=".62" transform="rotate(176 29.9 12.0)"/><rect x="51.1" y="40.3" width="16.8" height="2.9" rx="1.4" fill="#45403a" opacity=".62" transform="rotate(56 51.1 40.3)"/><rect x="59.3" y="70.4" width="13.1" height="2.7" rx="1.4" fill="#45403a" opacity=".62" transform="rotate(44 59.3 70.4)"/><rect x="67.1" y="5.5" width="16.1" height="4.6" rx="2.3" fill="#45403a" opacity=".62" transform="rotate(35 67.1 5.5)"/><rect x="55.6" y="29.8" width="7.0" height="2.4" rx="1.2" fill="#45403a" opacity=".62" transform="rotate(25 55.6 29.8)"/><rect x="17.3" y="31.6" width="14.2" height="2.5" rx="1.3" fill="#45403a" opacity=".62" transform="rotate(27 17.3 31.6)"/><rect x="95.8" y="71.1" width="10.3" height="3.2" rx="1.6" fill="#45403a" opacity=".62" transform="rotate(144 95.8 71.1)"/><rect x="41.9" y="75.7" width="19.4" height="4.3" rx="2.2" fill="#45403a" opacity=".62" transform="rotate(8 41.9 75.7)"/><rect x="35.2" y="29.3" width="17.6" height="3.5" rx="1.7" fill="#45403a" opacity=".62" transform="rotate(2 35.2 29.3)"/><rect x="30.6" y="26.3" width="5.4" height="2.0" rx="1.0" fill="#35312b" opacity=".62" transform="rotate(140 30.6 26.3)"/><rect x="50.5" y="2.3" width="16.8" height="2.6" rx="1.3" fill="#35312b" opacity=".62" transform="rotate(138 50.5 2.3)"/><rect x="74.7" y="27.1" width="5.0" height="2.7" rx="1.4" fill="#45403a" opacity=".62" transform="rotate(1 74.7 27.1)"/><rect x="51.5" y="36.0" width="9.5" height="2.0" rx="1.0" fill="#35312b" opacity=".62" transform="rotate(145 51.5 36.0)"/><rect x="64.6" y="26.8" width="14.4" height="1.9" rx="0.9" fill="#35312b" opacity=".62" transform="rotate(153 64.6 26.8)"/><rect x="4.1" y="51.6" width="9.1" height="4.0" rx="2.0" fill="#45403a" opacity=".62" transform="rotate(35 4.1 51.6)"/><rect x="4.5" y="11.8" width="19.0" height="3.6" rx="1.8" fill="#45403a" opacity=".62" transform="rotate(78 4.5 11.8)"/><rect x="44.1" y="20.3" width="5.9" height="3.0" rx="1.5" fill="#35312b" opacity=".62" transform="rotate(35 44.1 20.3)"/><rect x="71.9" y="17.7" width="5.6" height="2.8" rx="1.4" fill="#35312b" opacity=".62" transform="rotate(104 71.9 17.7)"/><rect x="21.8" y="75.2" width="14.9" height="3.7" rx="1.9" fill="#35312b" opacity=".62" transform="rotate(99 21.8 75.2)"/><rect x="49.4" y="10.3" width="11.2" height="4.8" rx="2.4" fill="#45403a" opacity=".62" transform="rotate(40 49.4 10.3)"/><rect x="95.0" y="15.3" width="15.7" height="4.4" rx="2.2" fill="#35312b" opacity=".62" transform="rotate(152 95.0 15.3)"/><rect x="8.6" y="32.9" width="15.8" height="2.1" rx="1.1" fill="#35312b" opacity=".62" transform="rotate(162 8.6 32.9)"/><rect x="57.8" y="45.7" width="15.1" height="2.2" rx="1.1" fill="#45403a" opacity=".62" transform="rotate(84 57.8 45.7)"/><rect x="95.4" y="68.2" width="7.5" height="2.3" rx="1.2" fill="#35312b" opacity=".62" transform="rotate(107 95.4 68.2)"/></svg>