<svg xmlns="http://www.w3.org/2000/svg" viewBox="0 0 96 96" width="96" height="96" role="img"><defs><linearGradient id="g" x1="0" y1="0" x2="0" y2="1"><stop offset="0" stop-color="#969899"/><stop offset="1" stop-color="#808283"/></linearGradient><linearGradient id="m" x1="0" y1="0" x2="1" y2="1"><stop offset="0" stop-color="#aaacad"/><stop offset=".5" stop-color="#8b8d8e"/><stop offset="1" stop-color="#676869"/></linearGradient></defs><rect width="96" height="96" fill="url(#g)"/>
     <rect x="0" y="0" width="96" height="48" fill="#fff" opacity=".05"/><circle cx="6" cy="20" r="0.6" fill="#6d7071" opacity=".22"/><circle cx="4" cy="33" r="0.6" fill="#6f7172" opacity=".22"/><circle cx="88" cy="71" r="0.9" fill="#6d7071" opacity=".22"/><circle cx="62" cy="88" r="1.0" fill="#6d7071" opacity=".22"/><circle cx="81" cy="19" r="0.6" fill="#6d7071" opacity=".22"/><circle cx="71" cy="29" r="0.5" fill="#6f7172" opacity=".22"/><circle cx="29" cy="74" r="0.6" fill="#6f7172" opacity=".22"/><circle cx="23" cy="51" r="1.0" fill="#6d7071" opacity=".22"/><circle cx="52" cy="55" r="0.5" fill="#6f7172" opacity=".22"/><circle cx="44" cy="46" r="0.9" fill="#6d7071" opacity=".22"/><circle cx="57" cy="14" r="0.5" fill="#6d7071" opacity=".22"/><circle cx="71" cy="40" r="0.4" fill="#6d7071" opacity=".22"/><circle cx="79" cy="95" r="1.1" fill="#6d7071" opacity=".22"/><circle cx="43" cy="7" r="0.6" fill="#6d7071" opacity=".22"/><circle cx="79" cy="88" r="0.5" fill="#6d7071" opacity=".22"/><circle cx="62" cy="20" r="0.7" fill="#6d7071" opacity=".22"/><circle cx="59" cy="7" r="0.5" fill="#6f7172" opacity=".22"/><circle cx="41" cy="27" r="0.8" fill="#6f7172" opacity=".22"/><circle cx="89" cy="29" r="0.8" fill="#6f7172" opacity=".22"/><circle cx="13" cy="54" r="0.7" fill="#6f7172" opacity=".22"/><circle cx="86" cy="2" r="0.8" fill="#6f7172" opacity=".22"/><circle cx="78" cy="75" r="0.4" fill="#6f7172" opacity=".22"/><circle cx="21" cy="65" r="0.8" fill="#6f7172" opacity=".22"/><circle cx="22" cy="47" r="1.1" fill="#6d7071" opacity=".22"/><circle cx="92" cy="91" r="0.6" fill="#6d7071" opacity=".22"/><circle cx="9" cy="64" r="0.8" fill="#6d7071" opacity=".22"/><circle cx="87" cy="30" r="0.7" fill="#6d7071" opacity=".22"/><circle cx="95" cy="71" r="0.6" fill="#6d7071" opacity=".22"/><circle cx="90" cy="92" r="0.9" fill="#6f7172" opacity=".22"/><circle cx="75" cy="88" r="0.8" fill="#6f7172" opacity=".22"/><circle cx="46" cy="89" r="0.5" fill="#6f7172" opacity=".22"/><circle cx="33" cy="25" r="0.6" fill="#6d7071" opacity=".22"/><circle cx="18" cy="70" r="0.9" fill="#6f7172" opacity=".22"/><circle cx="27" cy="53" r="0.8" fill="#6f7172" opacity=".22"/><circle cx="24" cy="86" r="1.1" fill="#6f7172" opacity=".22"/><circle cx="67" cy="44" r="1.1" fill="#6d7071" opacity=".22"/><circle cx="37" cy="17" r="1.0" fill="#6f7172" opacity=".22"/><circle cx="27" cy="56" r="0.5" fill="#6f7172" opacity=".22"/><circle cx="37" cy="79" r="0.6" fill="#6d7071" opacity=".22"/><circle cx="12" cy="20" r="0.6" fill="#6d7071" opacity=".22"/><circle cx="13" cy="42" r="0.8" fill="#6d7071" opacity=".22"/><circle cx="87" cy="20" r="1.0" fill="#6f7172" opacity=".22"/><circle cx="69" cy="84" r="0.5" fill="#6f7172" opacity=".22"/><circle cx="23" cy="79" r="0.9" fill="#6f7172" opacity=".22"/><circle cx="30" cy="39" r="0.9" fill="#6d7071" opacity=".22"/><circle cx="74" cy="20" r="0.6" fill="#6f7172" opacity=".22"/><circle cx="93" cy="20" r="1.0" fill="#6f7172" opacity=".22"/><circle cx="13" cy="40" r="0.7" fill="#6d7071" opacity=".22"/><circle cx="69" cy="2" r="1.0" fill="#6d7071" opacity=".22"/><circle cx="34" cy="28" r="0.9" fill="#6f7172" opacity=".22"/><circle cx="47" cy="4" r="1.1" fill="#6f7172" opacity=".22"/><circle cx="55" cy="29" r="0.7" fill="#6f7172" opacity=".22"/><circle cx="18" cy="7" r="0.8" fill="#6f7172" opacity=".22"/><circle cx="79" cy="49" r="0.4" fill="#6f7172" opacity=".22"/><circle cx="94" cy="23" r="1.0" fill="#6f7172" opacity=".22"/></svg>