<svg xmlns="http://www.w3.org/2000/svg" viewBox="0 0 96 96" width="96" height="96" role="img"><defs><linearGradient id="g" x1="0" y1="0" x2="0" y2="1"><stop offset="0" stop-color="#97918f"/><stop offset="1" stop-color="#817b79"/></linearGradient><linearGradient id="m" x1="0" y1="0" x2="1" y2="1"><stop offset="0" stop-color="#aba3a1"/><stop offset=".5" stop-color="#8c8684"/><stop offset="1" stop-color="#686362"/></linearGradient></defs><rect width="96" height="96" fill="#8c8684"/><rect x="3.6" y="21.6" width="86.4" height="1.39" fill="#716c68" opacity=".38"/><rect x="26.1" y="26.7" width="61.3" height="1.03" fill="#716c68" opacity=".38"/><rect x="15.2" y="26.0" width="45.9" height="1.67" fill="#716c68" opacity=".38"/><rect x="8.9" y="39.8" width="69.0" height="0.86" fill="#716c68" opacity=".38"/><rect x="3.3" y="70.0" width="37.0" height="1.15" fill="#716c68" opacity=".38"/><rect x="12.4" y="58.5" width="68.1" height="1.28" fill="#716c68" opacity=".38"/><rect x="1.5" y="90.7" width="85.9" height="1.00" fill="#716c68" opacity=".38"/><rect x="27.7" y="15.3" width="59.2" height="0.90" fill="#716c68" opacity=".38"/><rect x="15.3" y="82.0" width="34.0" height="1.04" fill="#716c68" opacity=".38"/><rect x="11.0" y="13.6" width="59.0" height="1.06" fill="#716c68" opacity=".38"/><rect x="20.2" y="21.5" width="63.1" height="1.24" fill="#716c68" opacity=".38"/><rect x="12.3" y="86.8" width="70.4" height="1.22" fill="#716c68" opacity=".38"/><rect x="7.0" y="48.9" width="36.6" height="1.57" fill="#716c68" opacity=".38"/><rect x="14.8" y="23.5" width="79.5" height="1.68" fill="#716c68" opacity=".38"/><rect x="27.6" y="57.1" width="67.5" height="1.30" fill="#716c68" opacity=".38"/><rect x="2.7" y="26.7" width="89.9" height="1.10" fill="#716c68" opacity=".38"/><rect x="10.3" y="29.4" width="71.8" height="1.05" fill="#716c68" opacity=".38"/><rect x="42.6" y="33.9" width="36.7" height="1.44" fill="#716c68" opacity=".38"/><rect x="7.9" y="7.0" width="70.6" height="0.83" fill="#716c68" opacity=".38"/><rect x="9.3" y="61.5" width="83.3" height="1.49" fill="#716c68" opacity=".38"/><rect x="9.9" y="66.9" width="81.9" height="1.55" fill="#716c68" opacity=".38"/><rect x="12.6" y="75.4" width="80.0" height="0.79" fill="#716c68" opacity=".38"/><rect x="27.2" y="73.8" width="68.2" height="0.84" fill="#716c68" opacity=".38"/><rect x="18.8" y="27.0" width="65.0" height="1.04" fill="#716c68" opacity=".38"/><rect x="27.9" y="59.8" width="62.2" height="0.80" fill="#716c68" opacity=".38"/><rect x="15.8" y="29.0" width="34.6" height="1.04" fill="#716c68" opacity=".38"/></svg>