<svg xmlns="http://www.w3.org/2000/svg" viewBox="0 0 96 96" width="96" height="96" role="img"><defs><linearGradient id="g" x1="0" y1="0" x2="0" y2="1"><stop offset="0" stop-color="#615c50"/><stop offset="1" stop-color="#534e44"/></linearGradient><linearGradient id="m" x1="0" y1="0" x2="1" y2="1"><stop offset="0" stop-color="#6e685a"/><stop offset=".5" stop-color="#5A554A"/><stop offset="1" stop-color="#433f37"/></linearGradient></defs><rect width="96" height="96" fill="url(#g)"/>
     <rect x="0" y="0" width="96" height="48" fill="#fff" opacity=".05"/><circle cx="23" cy="69" r="0.7" fill="#4e4a41" opacity=".22"/><circle cx="22" cy="63" r="0.8" fill="#4e4a41" opacity=".22"/><circle cx="63" cy="40" r="0.6" fill="#4e4a41" opacity=".22"/><circle cx="32" cy="67" r="0.6" fill="#48443b" opacity=".22"/><circle cx="11" cy="84" r="0.6" fill="#4e4a41" opacity=".22"/><circle cx="65" cy="25" r="0.4" fill="#4e4a41" opacity=".22"/><circle cx="10" cy="72" r="0.8" fill="#48443b" opacity=".22"/><circle cx="17" cy="88" r="1.0" fill="#4e4a41" opacity=".22"/><circle cx="72" cy="13" r="0.9" fill="#4e4a41" opacity=".22"/><circle cx="94" cy="90" r="0.5" fill="#48443b" opacity=".22"/><circle cx="4" cy="23" r="0.7" fill="#48443b" opacity=".22"/><circle cx="32" cy="22" r="0.8" fill="#48443b" opacity=".22"/><circle cx="43" cy="81" r="0.4" fill="#48443b" opacity=".22"/><circle cx="60" cy="77" r="1.0" fill="#48443b" opacity=".22"/><circle cx="54" cy="32" r="0.7" fill="#4e4a41" opacity=".22"/><circle cx="88" cy="44" r="0.5" fill="#48443b" opacity=".22"/><circle cx="13" cy="51" r="0.6" fill="#48443b" opacity=".22"/><circle cx="68" cy="10" r="0.7" fill="#48443b" opacity=".22"/><circle cx="52" cy="76" r="0.5" fill="#48443b" opacity=".22"/><circle cx="27" cy="92" r="0.4" fill="#4e4a41" opacity=".22"/><circle cx="17" cy="83" r="0.9" fill="#48443b" opacity=".22"/><circle cx="78" cy="32" r="0.8" fill="#48443b" opacity=".22"/><circle cx="91" cy="14" r="1.0" fill="#48443b" opacity=".22"/><circle cx="77" cy="47" r="1.0" fill="#48443b" opacity=".22"/><circle cx="11" cy="78" r="0.5" fill="#4e4a41" opacity=".22"/><circle cx="87" cy="77" r="0.8" fill="#48443b" opacity=".22"/><circle cx="35" cy="61" r="1.0" fill="#4e4a41" opacity=".22"/><circle cx="68" cy="5" r="1.1" fill="#48443b" opacity=".22"/><circle cx="46" cy="79" r="1.1" fill="#48443b" opacity=".22"/><circle cx="68" cy="15" r="0.9" fill="#48443b" opacity=".22"/><circle cx="60" cy="7" r="0.9" fill="#4e4a41" opacity=".22"/><circle cx="84" cy="13" r="0.6" fill="#48443b" opacity=".22"/><circle cx="27" cy="50" r="0.6" fill="#48443b" opacity=".22"/><circle cx="73" cy="45" r="0.6" fill="#4e4a41" opacity=".22"/><circle cx="16" cy="32" r="0.9" fill="#4e4a41" opacity=".22"/><circle cx="22" cy="43" r="0.8" fill="#48443b" opacity=".22"/><circle cx="92" cy="61" r="0.6" fill="#48443b" opacity=".22"/><circle cx="19" cy="28" r="0.7" fill="#4e4a41" opacity=".22"/><circle cx="51" cy="87" r="1.0" fill="#48443b" opacity=".22"/><circle cx="26" cy="17" r="0.8" fill="#4e4a41" opacity=".22"/><circle cx="7" cy="56" r="1.0" fill="#48443b" opacity=".22"/><circle cx="40" cy="38" r="0.7" fill="#4e4a41" opacity=".22"/><circle cx="59" cy="93" r="0.8" fill="#4e4a41" opacity=".22"/><circle cx="43" cy="63" r="0.5" fill="#4e4a41" opacity=".22"/><circle cx="62" cy="79" r="0.8" fill="#4e4a41" opacity=".22"/><circle cx="13" cy="28" r="0.6" fill="#4e4a41" opacity=".22"/><circle cx="22" cy="34" r="0.8" fill="#4e4a41" opacity=".22"/><circle cx="35" cy="76" r="0.7" fill="#48443b" opacity=".22"/><circle cx="24" cy="90" r="0.5" fill="#48443b" opacity=".22"/><circle cx="49" cy="10" r="0.7" fill="#4e4a41" opacity=".22"/><circle cx="90" cy="43" r="0.9" fill="#48443b" opacity=".22"/><circle cx="1" cy="66" r="0.8" fill="#48443b" opacity=".22"/><circle cx="23" cy="76" r="0.7" fill="#4e4a41" opacity=".22"/><circle cx="20" cy="72" r="0.9" fill="#48443b" opacity=".22"/><circle cx="57" cy="58" r="0.5" fill="#4e4a41" opacity=".22"/></svg>