<svg xmlns="http://www.w3.org/2000/svg" viewBox="0 0 96 96" width="96" height="96" role="img"><defs><linearGradient id="g" x1="0" y1="0" x2="0" y2="1"><stop offset="0" stop-color="#aa8d6d"/><stop offset="1" stop-color="#90795d"/></linearGradient><linearGradient id="m" x1="0" y1="0" x2="1" y2="1"><stop offset="0" stop-color="#c0a07b"/><stop offset=".5" stop-color="#9D8365"/><stop offset="1" stop-color="#74614b"/></linearGradient></defs><rect width="96" height="96" fill="url(#g)"/>
     <rect x="0" y="0" width="96" height="48" fill="#fff" opacity=".05"/><circle cx="88" cy="10" r="0.5" fill="#7e6951" opacity=".22"/><circle cx="51" cy="29" r="0.5" fill="#8f765b" opacity=".22"/><circle cx="42" cy="88" r="0.6" fill="#8f765b" opacity=".22"/><circle cx="28" cy="9" r="1.0" fill="#7e6951" opacity=".22"/><circle cx="95" cy="24" r="1.1" fill="#8f765b" opacity=".22"/><circle cx="54" cy="61" r="0.7" fill="#7e6951" opacity=".22"/><circle cx="49" cy="49" r="0.7" fill="#7e6951" opacity=".22"/><circle cx="91" cy="41" r="0.5" fill="#8f765b" opacity=".22"/><circle cx="40" cy="60" r="0.8" fill="#7e6951" opacity=".22"/><circle cx="91" cy="57" r="0.7" fill="#8f765b" opacity=".22"/><circle cx="73" cy="20" r="0.9" fill="#7e6951" opacity=".22"/><circle cx="89" cy="51" r="1.0" fill="#8f765b" opacity=".22"/><circle cx="12" cy="28" r="0.5" fill="#8f765b" opacity=".22"/><circle cx="6" cy="29" r="0.5" fill="#8f765b" opacity=".22"/><circle cx="61" cy="29" r="1.1" fill="#7e6951" opacity=".22"/><circle cx="93" cy="0" r="0.7" fill="#8f765b" opacity=".22"/><circle cx="80" cy="24" r="1.0" fill="#7e6951" opacity=".22"/><circle cx="68" cy="46" r="0.7" fill="#7e6951" opacity=".22"/><circle cx="80" cy="54" r="1.1" fill="#7e6951" opacity=".22"/><circle cx="86" cy="39" r="0.8" fill="#7e6951" opacity=".22"/><circle cx="63" cy="64" r="0.6" fill="#8f765b" opacity=".22"/><circle cx="46" cy="54" r="1.0" fill="#7e6951" opacity=".22"/><circle cx="80" cy="84" r="1.0" fill="#8f765b" opacity=".22"/><circle cx="58" cy="1" r="0.5" fill="#8f765b" opacity=".22"/><circle cx="92" cy="72" r="0.8" fill="#8f765b" opacity=".22"/><circle cx="82" cy="35" r="0.9" fill="#8f765b" opacity=".22"/><circle cx="73" cy="69" r="0.7" fill="#7e6951" opacity=".22"/><circle cx="54" cy="33" r="0.8" fill="#8f765b" opacity=".22"/><circle cx="82" cy="67" r="0.9" fill="#8f765b" opacity=".22"/><circle cx="41" cy="48" r="0.4" fill="#7e6951" opacity=".22"/><circle cx="11" cy="43" r="0.7" fill="#8f765b" opacity=".22"/><circle cx="75" cy="2" r="0.6" fill="#8f765b" opacity=".22"/><circle cx="67" cy="2" r="0.8" fill="#7e6951" opacity=".22"/><circle cx="86" cy="5" r="0.9" fill="#8f765b" opacity=".22"/><circle cx="18" cy="59" r="0.6" fill="#7e6951" opacity=".22"/><circle cx="17" cy="40" r="1.0" fill="#8f765b" opacity=".22"/><circle cx="82" cy="13" r="0.5" fill="#7e6951" opacity=".22"/><circle cx="76" cy="77" r="0.8" fill="#8f765b" opacity=".22"/><circle cx="62" cy="28" r="0.5" fill="#8f765b" opacity=".22"/><circle cx="6" cy="90" r="1.1" fill="#7e6951" opacity=".22"/><circle cx="63" cy="36" r="0.4" fill="#8f765b" opacity=".22"/><circle cx="78" cy="67" r="1.0" fill="#7e6951" opacity=".22"/><circle cx="90" cy="19" r="1.0" fill="#7e6951" opacity=".22"/><circle cx="89" cy="15" r="0.4" fill="#8f765b" opacity=".22"/><circle cx="63" cy="39" r="1.0" fill="#8f765b" opacity=".22"/><circle cx="57" cy="5" r="0.4" fill="#7e6951" opacity=".22"/><circle cx="94" cy="1" r="0.5" fill="#7e6951" opacity=".22"/><circle cx="70" cy="21" r="0.5" fill="#7e6951" opacity=".22"/><circle cx="51" cy="86" r="0.7" fill="#7e6951" opacity=".22"/><circle cx="55" cy="6" r="0.9" fill="#8f765b" opacity=".22"/><circle cx="22" cy="28" r="0.8" fill="#7e6951" opacity=".22"/><circle cx="68" cy="8" r="1.0" fill="#8f765b" opacity=".22"/><circle cx="49" cy="16" r="1.1" fill="#8f765b" opacity=".22"/><circle cx="12" cy="93" r="0.4" fill="#7e6951" opacity=".22"/><circle cx="65" cy="79" r="1.0" fill="#7e6951" opacity=".22"/></svg>