<svg xmlns="http://www.w3.org/2000/svg" viewBox="0 0 96 96" width="96" height="96" role="img"><defs><linearGradient id="g" x1="0" y1="0" x2="0" y2="1"><stop offset="0" stop-color="#787879"/><stop offset="1" stop-color="#666667"/></linearGradient><linearGradient id="m" x1="0" y1="0" x2="1" y2="1"><stop offset="0" stop-color="#878789"/><stop offset=".5" stop-color="#6f6f70"/><stop offset="1" stop-color="#525253"/></linearGradient></defs><rect width="96" height="96" fill="url(#g)"/>
     <rect x="0" y="0" width="96" height="48" fill="#fff" opacity=".05"/><circle cx="87" cy="61" r="1.1" fill="#59595a" opacity=".22"/><circle cx="24" cy="54" r="0.9" fill="#59595a" opacity=".22"/><circle cx="59" cy="79" r="0.9" fill="#59595a" opacity=".22"/><circle cx="55" cy="44" r="0.8" fill="#6a6761" opacity=".22"/><circle cx="36" cy="57" r="1.0" fill="#59595a" opacity=".22"/><circle cx="73" cy="18" r="0.7" fill="#59595a" opacity=".22"/><circle cx="83" cy="57" r="1.0" fill="#59595a" opacity=".22"/><circle cx="54" cy="70" r="0.8" fill="#59595a" opacity=".22"/><circle cx="60" cy="7" r="0.9" fill="#59595a" opacity=".22"/><circle cx="13" cy="63" r="1.1" fill="#6a6761" opacity=".22"/><circle cx="3" cy="6" r="0.6" fill="#6a6761" opacity=".22"/><circle cx="51" cy="50" r="1.0" fill="#6a6761" opacity=".22"/><circle cx="76" cy="17" r="0.5" fill="#59595a" opacity=".22"/><circle cx="43" cy="10" r="0.7" fill="#6a6761" opacity=".22"/><circle cx="71" cy="2" r="0.5" fill="#6a6761" opacity=".22"/><circle cx="3" cy="54" r="0.6" fill="#59595a" opacity=".22"/><circle cx="72" cy="1" r="1.0" fill="#6a6761" opacity=".22"/><circle cx="7" cy="56" r="1.1" fill="#59595a" opacity=".22"/><circle cx="82" cy="41" r="0.7" fill="#59595a" opacity=".22"/><circle cx="18" cy="0" r="0.9" fill="#59595a" opacity=".22"/><circle cx="47" cy="57" r="0.5" fill="#59595a" opacity=".22"/><circle cx="19" cy="55" r="0.6" fill="#6a6761" opacity=".22"/><circle cx="21" cy="42" r="0.5" fill="#59595a" opacity=".22"/><circle cx="68" cy="80" r="0.6" fill="#59595a" opacity=".22"/><circle cx="9" cy="47" r="1.1" fill="#59595a" opacity=".22"/><circle cx="29" cy="78" r="0.9" fill="#59595a" opacity=".22"/><circle cx="24" cy="38" r="0.7" fill="#6a6761" opacity=".22"/><circle cx="56" cy="9" r="0.6" fill="#59595a" opacity=".22"/><circle cx="5" cy="55" r="0.8" fill="#6a6761" opacity=".22"/><circle cx="60" cy="81" r="0.8" fill="#59595a" opacity=".22"/><circle cx="48" cy="48" r="1.0" fill="#6a6761" opacity=".22"/><circle cx="58" cy="29" r="0.7" fill="#59595a" opacity=".22"/><circle cx="1" cy="63" r="0.9" fill="#6a6761" opacity=".22"/><circle cx="26" cy="90" r="0.7" fill="#59595a" opacity=".22"/><circle cx="61" cy="65" r="1.0" fill="#6a6761" opacity=".22"/><circle cx="8" cy="66" r="0.4" fill="#59595a" opacity=".22"/><circle cx="95" cy="73" r="0.9" fill="#59595a" opacity=".22"/><circle cx="90" cy="36" r="0.7" fill="#59595a" opacity=".22"/><circle cx="85" cy="71" r="0.4" fill="#6a6761" opacity=".22"/><circle cx="77" cy="7" r="0.8" fill="#59595a" opacity=".22"/><circle cx="8" cy="64" r="0.8" fill="#6a6761" opacity=".22"/><circle cx="74" cy="57" r="0.8" fill="#59595a" opacity=".22"/><circle cx="65" cy="89" r="0.8" fill="#59595a" opacity=".22"/><circle cx="78" cy="76" r="0.7" fill="#59595a" opacity=".22"/><circle cx="5" cy="2" r="1.0" fill="#59595a" opacity=".22"/><circle cx="46" cy="65" r="0.6" fill="#6a6761" opacity=".22"/><circle cx="43" cy="37" r="0.6" fill="#6a6761" opacity=".22"/><circle cx="90" cy="52" r="0.8" fill="#59595a" opacity=".22"/><circle cx="34" cy="69" r="1.0" fill="#59595a" opacity=".22"/><circle cx="85" cy="96" r="1.0" fill="#59595a" opacity=".22"/><circle cx="40" cy="75" r="0.6" fill="#59595a" opacity=".22"/><circle cx="60" cy="9" r="0.7" fill="#6a6761" opacity=".22"/><circle cx="48" cy="34" r="1.1" fill="#59595a" opacity=".22"/><circle cx="13" cy="90" r="0.4" fill="#6a6761" opacity=".22"/><circle cx="20" cy="96" r="0.5" fill="#59595a" opacity=".22"/></svg>