<svg xmlns="http://www.w3.org/2000/svg" viewBox="0 0 96 96" width="96" height="96" role="img"><defs><linearGradient id="g" x1="0" y1="0" x2="0" y2="1"><stop offset="0" stop-color="#3b342c"/><stop offset="1" stop-color="#332c26"/></linearGradient><linearGradient id="m" x1="0" y1="0" x2="1" y2="1"><stop offset="0" stop-color="#433b32"/><stop offset=".5" stop-color="#373029"/><stop offset="1" stop-color="#29241e"/></linearGradient></defs><rect width="96" height="96" fill="#373029"/><rect x="55.4" y="81.3" width="18.9" height="4.8" rx="2.4" fill="#403830" opacity=".62" transform="rotate(78 55.4 81.3)"/><rect x="94.9" y="95.5" width="14.3" height="2.9" rx="1.4" fill="#403830" opacity=".62" transform="rotate(53 94.9 95.5)"/><rect x="47.8" y="77.4" width="14.2" height="2.4" rx="1.2" fill="#5c4c3c" opacity=".62" transform="rotate(158 47.8 77.4)"/><rect x="5.4" y="53.6" width="17.4" height="3.4" rx="1.7" fill="#5c4c3c" opacity=".62" transform="rotate(73 5.4 53.6)"/><rect x="5.5" y="38.6" width="7.6" height="4.7" rx="2.4" fill="#403830" opacity=".62" transform="rotate(17 5.5 38.6)"/><rect x="60.3" y="19.0" width="14.6" height="3.4" rx="1.7" fill="#5c4c3c" opacity=".62" transform="rotate(25 60.3 19.0)"/><rect x="29.4" y="33.9" width="12.1" height="4.6" rx="2.3" fill="#403830" opacity=".62" transform="rotate(158 29.4 33.9)"/><rect x="73.4" y="16.8" width="20.1" height="3.4" rx="1.7" fill="#403830" opacity=".62" transform="rotate(129 73.4 16.8)"/><rect x="40.2" y="95.1" width="17.2" height="3.8" rx="1.9" fill="#5c4c3c" opacity=".62" transform="rotate(35 40.2 95.1)"/><rect x="30.9" y="11.6" width="7.1" height="3.6" rx="1.8" fill="#403830" opacity=".62" transform="rotate(161 30.9 11.6)"/><rect x="21.3" y="27.1" width="13.0" height="2.1" rx="1.1" fill="#403830" opacity=".62" transform="rotate(105 21.3 27.1)"/><rect x="82.3" y="3.6" width="13.3" height="4.7" rx="2.4" fill="#403830" opacity=".62" transform="rotate(165 82.3 3.6)"/><rect x="9.3" y="48.8" width="7.0" height="1.7" rx="0.8" fill="#5c4c3c" opacity=".62" transform="rotate(47 9.3 48.8)"/><rect x="82.4" y="52.0" width="8.4" height="3.9" rx="2.0" fill="#403830" opacity=".62" transform="rotate(168 82.4 52.0)"/><rect x="17.8" y="92.8" width="7.9" height="2.8" rx="1.4" fill="#5c4c3c" opacity=".62" transform="rotate(118 17.8 92.8)"/><rect x="77.5" y="90.2" width="16.2" height="4.3" rx="2.2" fill="#403830" opacity=".62" transform="rotate(18 77.5 90.2)"/><rect x="91.8" y="32.3" width="10.0" height="2.3" rx="1.1" fill="#5c4c3c" opacity=".62" transform="rotate(136 91.8 32.3)"/><rect x="53.9" y="1.5" width="16.6" height="1.6" rx="0.8" fill="#5c4c3c" opacity=".62" transform="rotate(59 53.9 1.5)"/><rect x="81.4" y="81.8" width="11.3" height="1.9" rx="0.9" fill="#5c4c3c" opacity=".62" transform="rotate(109 81.4 81.8)"/><rect x="5.0" y="21.2" width="19.8" height="2.9" rx="1.4" fill="#5c4c3c" opacity=".62" transform="rotate(30 5.0 21.2)"/><rect x="65.7" y="34.8" width="5.5" height="2.2" rx="1.1" fill="#5c4c3c" opacity=".62" transform="rotate(178 65.7 34.8)"/><rect x="54.8" y="44.2" width="8.6" height="4.0" rx="2.0" fill="#5c4c3c" opacity=".62" transform="rotate(24 54.8 44.2)"/><rect x="45.7" y="94.9" width="14.5" height="3.7" rx="1.9" fill="#5c4c3c" opacity=".62" transform="rotate(138 45.7 94.9)"/><rect x="91.1" y="75.1" width="17.4" height="3.4" rx="1.7" fill="#5c4c3c" opacity=".62" transform="rotate(177 91.1 75.1)"/><rect x="25.9" y="58.2" width="16.5" height="3.6" rx="1.8" fill="#403830" opacity=".62" transform="rotate(135 25.9 58.2)"/><rect x="20.6" y="60.1" width="12.7" height="3.5" rx="1.8" fill="#5c4c3c" opacity=".62" transform="rotate(169 20.6 60.1)"/><rect x="27.5" y="16.2" width="8.2" height="3.9" rx="1.9" fill="#5c4c3c" opacity=".62" transform="rotate(32 27.5 16.2)"/><rect x="47.5" y="21.1" width="18.7" height="4.4" rx="2.2" fill="#5c4c3c" opacity=".62" transform="rotate(53 47.5 21.1)"/><rect x="71.3" y="18.5" width="11.2" height="2.5" rx="1.2" fill="#5c4c3c" opacity=".62" transform="rotate(164 71.3 18.5)"/><rect x="9.5" y="52.9" width="10.9" height="1.8" rx="0.9" fill="#5c4c3c" opacity=".62" transform="rotate(71 9.5 52.9)"/><rect x="68.0" y="35.1" width="15.5" height="4.2" rx="2.1" fill="#5c4c3c" opacity=".62" transform="rotate(45 68.0 35.1)"/><rect x="44.3" y="14.6" width="12.4" height="4.7" rx="2.4" fill="#5c4c3c" opacity=".62" transform="rotate(131 44.3 14.6)"/><rect x="82.2" y="65.1" width="14.7" height="2.8" rx="1.4" fill="#403830" opacity=".62" transform="rotate(152 82.2 65.1)"/><rect x="73.7" y="57.0" width="19.5" height="3.7" rx="1.8" fill="#5c4c3c" opacity=".62" transform="rotate(111 73.7 57.0)"/><rect x="70.1" y="81.5" width="14.1" height="2.7" rx="1.4" fill="#5c4c3c" opacity=".62" transform="rotate(98 70.1 81.5)"/><rect x="68.1" y="50.4" width="11.7" height="2.8" rx="1.4" fill="#5c4c3c" opacity=".62" transform="rotate(131 68.1 50.4)"/><rect x="31.1" y="26.0" width="10.3" height="1.8" rx="0.9" fill="#5c4c3c" opacity=".62" transform="rotate(94 31.1 26.0)"/><rect x="17.6" y="61.3" width="9.8" height="3.6" rx="1.8" fill="#403830" opacity=".62" transform="rotate(5 17.6 61.3)"/><rect x="44.1" y="75.3" width="18.9" height="3.7" rx="1.9" fill="#403830" opacity=".62" transform="rotate(72 44.1 75.3)"/><rect x="12.5" y="78.0" width="17.2" height="2.1" rx="1.0" fill="#5c4c3c" opacity=".62" transform="rotate(98 12.5 78.0)"/><rect x="46.9" y="63.8" width="14.8" height="1.7" rx="0.8" fill="#5c4c3c" opacity=".62" transform="rotate(69 46.9 63.8)"/><rect x="46.9" y="45.2" width="12.9" height="3.8" rx="1.9" fill="#5c4c3c" opacity=".62" transform="rotate(116 46.9 45.2)"/><rect x="20.2" y="56.6" width="10.4" height="2.1" rx="1.0" fill="#5c4c3c" opacity=".62" transform="rotate(35 20.2 56.6)"/><rect x="16.6" y="93.5" width="11.8" height="2.0" rx="1.0" fill="#5c4c3c" opacity=".62" transform="rotate(141 16.6 93.5)"/><rect x="89.5" y="73.3" width="14.6" height="2.0" rx="1.0" fill="#5c4c3c" opacity=".62" transform="rotate(122 89.5 73.3)"/><rect x="70.4" y="34.3" width="9.6" height="3.4" rx="1.7" fill="#5c4c3c" opacity=".62" transform="rotate(118 70.4 34.3)"/></svg>