<svg xmlns="http://www.w3.org/2000/svg" viewBox="0 0 96 96" width="96" height="96" role="img"><defs><linearGradient id="g" x1="0" y1="0" x2="0" y2="1"><stop offset="0" stop-color="#c8c3be"/><stop offset="1" stop-color="#aaa7a2"/></linearGradient><linearGradient id="m" x1="0" y1="0" x2="1" y2="1"><stop offset="0" stop-color="#e2ddd7"/><stop offset=".5" stop-color="#b9b5b0"/><stop offset="1" stop-color="#898682"/></linearGradient></defs><rect width="96" height="96" fill="#787672"/><circle cx="38.6" cy="31.3" r="5.9" fill="#b9b5b0" opacity="0.95"/><circle cx="25.8" cy="7.3" r="5.6" fill="#a19b97" opacity="0.77"/><circle cx="58.2" cy="58.7" r="6.3" fill="#b9b5b0" opacity="0.84"/><circle cx="37.7" cy="60.1" r="10.6" fill="#a19b97" opacity="0.96"/><circle cx="84.1" cy="83.3" r="8.2" fill="#b9b5b0" opacity="0.88"/><circle cx="4.9" cy="94.9" r="8.1" fill="#b9b5b0" opacity="0.78"/><circle cx="57.8" cy="53.9" r="4.0" fill="#b9b5b0" opacity="0.83"/><circle cx="87.1" cy="26.3" r="8.7" fill="#b9b5b0" opacity="0.98"/><circle cx="74.2" cy="43.2" r="3.7" fill="#b9b5b0" opacity="0.97"/><circle cx="95.1" cy="20.6" r="3.4" fill="#a19b97" opacity="0.84"/><circle cx="95.5" cy="70.7" r="8.3" fill="#b9b5b0" opacity="0.88"/><circle cx="76.4" cy="70.7" r="5.2" fill="#b9b5b0" opacity="0.99"/><circle cx="14.0" cy="12.9" r="9.6" fill="#a19b97" opacity="1.00"/><circle cx="85.4" cy="33.9" r="10.7" fill="#b9b5b0" opacity="0.87"/><circle cx="88.7" cy="2.2" r="10.9" fill="#b9b5b0" opacity="0.79"/><circle cx="28.9" cy="44.3" r="9.1" fill="#b9b5b0" opacity="0.91"/><circle cx="56.4" cy="28.0" r="6.7" fill="#a19b97" opacity="0.92"/><circle cx="55.5" cy="54.2" r="5.6" fill="#a19b97" opacity="0.79"/><circle cx="63.2" cy="64.5" r="5.4" fill="#a19b97" opacity="0.96"/><circle cx="47.9" cy="15.5" r="6.9" fill="#b9b5b0" opacity="0.84"/><circle cx="75.5" cy="88.9" r="8.7" fill="#b9b5b0" opacity="0.89"/><circle cx="10.2" cy="12.3" r="8.1" fill="#b9b5b0" opacity="0.88"/><circle cx="58.5" cy="70.5" r="10.9" fill="#b9b5b0" opacity="0.77"/><circle cx="70.0" cy="59.6" r="4.9" fill="#b9b5b0" opacity="0.81"/><circle cx="60.3" cy="53.9" r="8.8" fill="#a19b97" opacity="0.83"/><circle cx="12.2" cy="23.0" r="3.4" fill="#b9b5b0" opacity="0.95"/><circle cx="80.2" cy="13.6" r="3.7" fill="#a19b97" opacity="0.83"/><circle cx="61.8" cy="71.5" r="3.6" fill="#a19b97" opacity="0.84"/><circle cx="84.8" cy="56.3" r="8.9" fill="#a19b97" opacity="0.92"/><circle cx="94.4" cy="17.0" r="6.0" fill="#a19b97" opacity="0.94"/><circle cx="33.5" cy="92.6" r="3.3" fill="#a19b97" opacity="0.81"/><circle cx="31.4" cy="44.0" r="7.5" fill="#b9b5b0" opacity="0.93"/><circle cx="28.2" cy="17.9" r="5.0" fill="#a19b97" opacity="0.86"/><circle cx="89.3" cy="8.7" r="9.5" fill="#a19b97" opacity="0.89"/><circle cx="74.1" cy="7.4" r="6.3" fill="#a19b97" opacity="0.78"/><circle cx="81.0" cy="47.8" r="10.3" fill="#a19b97" opacity="0.98"/><circle cx="19.4" cy="77.4" r="9.3" fill="#a19b97" opacity="0.82"/><circle cx="17.7" cy="20.8" r="10.2" fill="#a19b97" opacity="0.75"/><circle cx="46.5" cy="73.4" r="5.3" fill="#a19b97" opacity="0.79"/><circle cx="73.0" cy="12.9" r="4.0" fill="#b9b5b0" opacity="0.84"/><circle cx="58.3" cy="9.8" r="9.6" fill="#a19b97" opacity="0.88"/><circle cx="44.2" cy="74.0" r="7.4" fill="#a19b97" opacity="0.85"/><circle cx="63.4" cy="28.2" r="9.0" fill="#a19b97" opacity="0.90"/><circle cx="17.7" cy="32.0" r="4.1" fill="#b9b5b0" opacity="0.91"/><circle cx="32.7" cy="22.3" r="6.1" fill="#b9b5b0" opacity="0.90"/><circle cx="88.0" cy="3.4" r="8.5" fill="#b9b5b0" opacity="0.92"/><circle cx="59.3" cy="7.4" r="9.1" fill="#a19b97" opacity="0.76"/><circle cx="30.4" cy="35.7" r="4.0" fill="#a19b97" opacity="0.95"/><circle cx="52.9" cy="43.1" r="9.0" fill="#b9b5b0" opacity="0.81"/><circle cx="62.2" cy="84.9" r="5.7" fill="#a19b97" opacity="0.84"/><circle cx="40.0" cy="4.8" r="9.9" fill="#b9b5b0" opacity="0.77"/><circle cx="44.7" cy="90.4" r="6.4" fill="#a19b97" opacity="0.94"/><circle cx="80.6" cy="56.6" r="10.2" fill="#a19b97" opacity="0.78"/><circle cx="28.9" cy="56.3" r="6.9" fill="#a19b97" opacity="0.86"/><circle cx="72.9" cy="3.6" r="7.8" fill="#b9b5b0" opacity="0.92"/><circle cx="70.1" cy="58.9" r="10.9" fill="#a19b97" opacity="0.97"/><circle cx="70.2" cy="16.0" r="6.4" fill="#b9b5b0" opacity="0.89"/><circle cx="55.3" cy="8.0" r="6.1" fill="#b9b5b0" opacity="0.80"/><circle cx="59.3" cy="75.7" r="5.8" fill="#b9b5b0" opacity="0.76"/><circle cx="92.5" cy="80.8" r="7.9" fill="#b9b5b0" opacity="0.76"/><circle cx="43.1" cy="25.3" r="5.6" fill="#b9b5b0" opacity="0.82"/><circle cx="78.8" cy="94.2" r="6.0" fill="#b9b5b0" opacity="0.94"/><circle cx="39.9" cy="78.4" r="9.5" fill="#b9b5b0" opacity="0.75"/><circle cx="60.3" cy="95.6" r="3.0" fill="#a19b97" opacity="0.97"/></svg>