<svg xmlns="http://www.w3.org/2000/svg" viewBox="0 0 96 96" width="96" height="96" role="img"><defs><linearGradient id="g" x1="0" y1="0" x2="0" y2="1"><stop offset="0" stop-color="#938c84"/><stop offset="1" stop-color="#7d7870"/></linearGradient><linearGradient id="m" x1="0" y1="0" x2="1" y2="1"><stop offset="0" stop-color="#a69f95"/><stop offset=".5" stop-color="#88827a"/><stop offset="1" stop-color="#65605a"/></linearGradient></defs><rect width="96" height="96" fill="url(#g)"/>
     <rect x="0" y="0" width="96" height="48" fill="#fff" opacity=".05"/><circle cx="37" cy="59" r="0.8" fill="#95918b" opacity=".22"/><circle cx="6" cy="38" r="0.8" fill="#95918b" opacity=".22"/><circle cx="40" cy="17" r="0.8" fill="#95918b" opacity=".22"/><circle cx="57" cy="87" r="1.1" fill="#6d6862" opacity=".22"/><circle cx="56" cy="94" r="0.8" fill="#6d6862" opacity=".22"/><circle cx="72" cy="46" r="0.7" fill="#95918b" opacity=".22"/><circle cx="35" cy="38" r="0.8" fill="#95918b" opacity=".22"/><circle cx="70" cy="51" r="0.8" fill="#95918b" opacity=".22"/><circle cx="51" cy="60" r="0.6" fill="#95918b" opacity=".22"/><circle cx="83" cy="23" r="0.8" fill="#6d6862" opacity=".22"/><circle cx="79" cy="67" r="0.5" fill="#95918b" opacity=".22"/><circle cx="16" cy="69" r="0.9" fill="#6d6862" opacity=".22"/><circle cx="15" cy="69" r="0.5" fill="#6d6862" opacity=".22"/><circle cx="42" cy="91" r="0.9" fill="#6d6862" opacity=".22"/><circle cx="82" cy="58" r="0.7" fill="#6d6862" opacity=".22"/><circle cx="45" cy="6" r="0.7" fill="#6d6862" opacity=".22"/><circle cx="66" cy="24" r="0.4" fill="#6d6862" opacity=".22"/><circle cx="26" cy="29" r="0.9" fill="#95918b" opacity=".22"/><circle cx="36" cy="41" r="1.1" fill="#6d6862" opacity=".22"/><circle cx="33" cy="6" r="0.7" fill="#6d6862" opacity=".22"/><circle cx="85" cy="78" r="1.0" fill="#6d6862" opacity=".22"/><circle cx="26" cy="73" r="0.8" fill="#95918b" opacity=".22"/><circle cx="45" cy="57" r="0.9" fill="#6d6862" opacity=".22"/><circle cx="91" cy="69" r="1.1" fill="#95918b" opacity=".22"/><circle cx="19" cy="33" r="1.1" fill="#95918b" opacity=".22"/><circle cx="69" cy="61" r="0.5" fill="#6d6862" opacity=".22"/><circle cx="27" cy="74" r="0.6" fill="#95918b" opacity=".22"/><circle cx="59" cy="56" r="1.1" fill="#6d6862" opacity=".22"/><circle cx="83" cy="3" r="0.9" fill="#95918b" opacity=".22"/><circle cx="25" cy="3" r="0.5" fill="#95918b" opacity=".22"/><circle cx="42" cy="0" r="0.4" fill="#6d6862" opacity=".22"/><circle cx="18" cy="64" r="0.8" fill="#95918b" opacity=".22"/><circle cx="29" cy="51" r="0.5" fill="#95918b" opacity=".22"/><circle cx="31" cy="79" r="1.0" fill="#6d6862" opacity=".22"/><circle cx="39" cy="58" r="0.5" fill="#6d6862" opacity=".22"/><circle cx="60" cy="65" r="0.6" fill="#6d6862" opacity=".22"/><circle cx="33" cy="6" r="0.7" fill="#6d6862" opacity=".22"/><circle cx="42" cy="50" r="0.6" fill="#95918b" opacity=".22"/><circle cx="42" cy="11" r="0.5" fill="#6d6862" opacity=".22"/><circle cx="25" cy="36" r="1.0" fill="#6d6862" opacity=".22"/><circle cx="79" cy="32" r="0.4" fill="#95918b" opacity=".22"/><circle cx="31" cy="27" r="0.8" fill="#95918b" opacity=".22"/><circle cx="70" cy="72" r="0.8" fill="#6d6862" opacity=".22"/><circle cx="11" cy="36" r="0.8" fill="#6d6862" opacity=".22"/><circle cx="4" cy="28" r="0.7" fill="#95918b" opacity=".22"/><circle cx="30" cy="73" r="0.8" fill="#6d6862" opacity=".22"/><circle cx="84" cy="73" r="0.4" fill="#6d6862" opacity=".22"/><circle cx="47" cy="31" r="0.6" fill="#6d6862" opacity=".22"/><circle cx="7" cy="95" r="0.6" fill="#6d6862" opacity=".22"/><circle cx="43" cy="30" r="0.8" fill="#95918b" opacity=".22"/><circle cx="4" cy="41" r="1.0" fill="#95918b" opacity=".22"/><circle cx="73" cy="38" r="1.0" fill="#6d6862" opacity=".22"/><circle cx="88" cy="10" r="0.5" fill="#6d6862" opacity=".22"/><circle cx="58" cy="7" r="1.0" fill="#6d6862" opacity=".22"/><circle cx="78" cy="22" r="0.8" fill="#6d6862" opacity=".22"/></svg>