<svg xmlns="http://www.w3.org/2000/svg" viewBox="0 0 96 96" width="96" height="96" role="img"><defs><linearGradient id="g" x1="0" y1="0" x2="0" y2="1"><stop offset="0" stop-color="#bebcb8"/><stop offset="1" stop-color="#a2a09c"/></linearGradient><linearGradient id="m" x1="0" y1="0" x2="1" y2="1"><stop offset="0" stop-color="#d7d4cf"/><stop offset=".5" stop-color="#b0aeaa"/><stop offset="1" stop-color="#82817e"/></linearGradient></defs><rect width="96" height="96" fill="url(#g)"/>
     <rect x="0" y="0" width="96" height="48" fill="#fff" opacity=".05"/><circle cx="52" cy="35" r="0.6" fill="#8d8b86" opacity=".22"/><circle cx="40" cy="93" r="0.4" fill="#8d8b86" opacity=".22"/><circle cx="40" cy="53" r="0.9" fill="#8d8b86" opacity=".22"/><circle cx="6" cy="10" r="0.6" fill="#8d8b88" opacity=".22"/><circle cx="40" cy="63" r="0.9" fill="#8d8b88" opacity=".22"/><circle cx="8" cy="75" r="0.9" fill="#8d8b86" opacity=".22"/><circle cx="8" cy="48" r="1.0" fill="#8d8b86" opacity=".22"/><circle cx="65" cy="57" r="0.8" fill="#8d8b86" opacity=".22"/><circle cx="78" cy="11" r="1.1" fill="#8d8b86" opacity=".22"/><circle cx="67" cy="69" r="0.6" fill="#8d8b86" opacity=".22"/><circle cx="26" cy="93" r="1.0" fill="#8d8b88" opacity=".22"/><circle cx="73" cy="57" r="0.9" fill="#8d8b86" opacity=".22"/><circle cx="18" cy="63" r="1.1" fill="#8d8b88" opacity=".22"/><circle cx="22" cy="60" r="0.9" fill="#8d8b86" opacity=".22"/><circle cx="29" cy="76" r="0.5" fill="#8d8b88" opacity=".22"/><circle cx="39" cy="35" r="0.8" fill="#8d8b88" opacity=".22"/><circle cx="39" cy="24" r="1.0" fill="#8d8b86" opacity=".22"/><circle cx="65" cy="27" r="0.4" fill="#8d8b88" opacity=".22"/><circle cx="43" cy="34" r="1.0" fill="#8d8b86" opacity=".22"/><circle cx="75" cy="10" r="0.4" fill="#8d8b88" opacity=".22"/><circle cx="43" cy="7" r="0.8" fill="#8d8b88" opacity=".22"/><circle cx="86" cy="25" r="0.6" fill="#8d8b86" opacity=".22"/><circle cx="26" cy="20" r="0.6" fill="#8d8b88" opacity=".22"/><circle cx="94" cy="12" r="0.5" fill="#8d8b88" opacity=".22"/><circle cx="25" cy="19" r="0.6" fill="#8d8b88" opacity=".22"/><circle cx="67" cy="61" r="0.4" fill="#8d8b86" opacity=".22"/><circle cx="62" cy="58" r="0.7" fill="#8d8b88" opacity=".22"/><circle cx="47" cy="96" r="0.8" fill="#8d8b88" opacity=".22"/><circle cx="25" cy="2" r="0.7" fill="#8d8b88" opacity=".22"/><circle cx="63" cy="88" r="0.9" fill="#8d8b86" opacity=".22"/><circle cx="29" cy="50" r="0.7" fill="#8d8b86" opacity=".22"/><circle cx="38" cy="62" r="0.6" fill="#8d8b88" opacity=".22"/><circle cx="14" cy="13" r="1.1" fill="#8d8b88" opacity=".22"/><circle cx="12" cy="16" r="0.7" fill="#8d8b86" opacity=".22"/><circle cx="10" cy="48" r="0.7" fill="#8d8b88" opacity=".22"/><circle cx="7" cy="16" r="0.7" fill="#8d8b88" opacity=".22"/><circle cx="77" cy="16" r="1.0" fill="#8d8b88" opacity=".22"/><circle cx="41" cy="40" r="0.6" fill="#8d8b88" opacity=".22"/><circle cx="9" cy="75" r="1.0" fill="#8d8b88" opacity=".22"/><circle cx="84" cy="34" r="0.4" fill="#8d8b86" opacity=".22"/><circle cx="17" cy="95" r="1.0" fill="#8d8b88" opacity=".22"/><circle cx="27" cy="16" r="0.5" fill="#8d8b86" opacity=".22"/><circle cx="28" cy="19" r="0.8" fill="#8d8b88" opacity=".22"/><circle cx="55" cy="50" r="0.9" fill="#8d8b88" opacity=".22"/><circle cx="18" cy="48" r="0.5" fill="#8d8b88" opacity=".22"/><circle cx="8" cy="38" r="0.8" fill="#8d8b86" opacity=".22"/><circle cx="3" cy="22" r="0.5" fill="#8d8b86" opacity=".22"/><circle cx="75" cy="65" r="0.8" fill="#8d8b86" opacity=".22"/><circle cx="63" cy="52" r="0.8" fill="#8d8b86" opacity=".22"/><circle cx="69" cy="75" r="0.7" fill="#8d8b86" opacity=".22"/><circle cx="55" cy="78" r="0.8" fill="#8d8b88" opacity=".22"/><circle cx="57" cy="39" r="0.5" fill="#8d8b86" opacity=".22"/><circle cx="93" cy="89" r="0.9" fill="#8d8b86" opacity=".22"/><circle cx="26" cy="18" r="0.6" fill="#8d8b86" opacity=".22"/><circle cx="17" cy="16" r="0.5" fill="#8d8b86" opacity=".22"/></svg>